<svg width="512" height="512" viewBox="0 0 512 512" fill="none" xmlns="http://www.w3.org/2000/svg">
<path d="M240.031 265.735C243.37 265.232 246.498 266.118 251.511 267.127C252.86 267.451 254.243 267.825 255.675 268.251C255.79 268.286 255.903 268.323 256.015 268.358C261.624 268.471 264.859 269.672 266.91 270.277C267.38 270.109 267.878 269.921 268.396 269.734C271.217 268.892 273.626 267.555 276.386 267.708C280.34 267.764 282.322 270.219 283.79 272.479C285.049 274.315 286.277 276.225 288.268 277.147C289.659 277.796 291.594 278.15 293.35 278.41C296.024 278.839 298.741 279.368 299.591 280.894C299.926 281.478 299.633 282.782 299.334 284.076C299.331 284.083 299.327 284.091 299.324 284.098C299.304 284.186 299.285 284.274 299.265 284.362C303.067 285.993 306.815 287.536 310.509 289.014C310.966 288.969 311.425 288.93 311.878 288.895C314.088 288.712 316.308 288.603 318.364 287.594C320.616 286.517 323.663 287.258 326.873 288.068C328.942 288.571 331.097 289.114 333.167 289.193C334.38 289.242 334.294 290.8 334.188 292.394C334.093 293.884 333.995 295.411 334.945 295.789C335.421 295.978 336.161 295.908 336.952 295.833C337.649 295.767 338.389 295.698 339.019 295.802C339.609 295.903 340.033 297.144 340.592 298.742C340.937 299.729 341.333 300.848 341.833 301.917C344.519 303.123 347.14 304.328 349.748 305.602C350.909 305.13 352.224 304.357 353.721 303.205C354.796 302.378 356.005 301.324 357.242 300.25C358.926 298.787 360.669 297.276 362.218 296.207C363.427 295.372 364.139 295.233 363.992 295.88C363.923 296.182 363.672 296.649 363.446 297.071C363.187 297.553 362.957 297.981 363.059 298.051C363.134 298.1 363.451 297.869 363.835 297.592C364.448 297.15 365.24 296.582 365.537 296.788C366.644 297.561 367.608 298.776 368.556 299.976C369.606 301.307 370.627 302.603 371.788 303.224C373.082 303.914 373.745 306.337 374.385 308.743C374.834 310.422 375.273 312.091 375.937 313.194C376.602 314.285 378.065 314.52 379.48 314.739C381.181 315.005 382.796 315.24 382.888 316.957C382.907 317.306 382.131 318.658 381.16 320.349C380.472 321.547 379.687 322.919 379.012 324.225C380.156 325.222 381.249 326.26 382.291 327.326C382.467 327.204 382.646 327.078 382.828 326.952C382.832 326.949 382.837 326.945 382.841 326.942C386.973 324.094 392.676 320.245 391.833 324.788C391.619 325.942 390.671 327.59 389.816 329.072C388.979 330.53 388.217 331.826 388.356 332.361C388.509 332.961 389.629 332.599 390.844 332.204C392.549 331.648 394.448 331.023 394.135 332.888C394.114 333.016 394.089 333.156 394.066 333.297C393.846 334.628 393.54 336.613 392.116 339.896C393.919 342.706 395.63 345.65 397.207 348.613C399.951 353.654 402.39 358.807 404.877 364.026C406.135 366.625 404.757 371.63 401.215 378.434C397.421 385.023 392.039 393.038 385.155 400.123C378.697 407.596 371.249 413.716 365.091 418.156C358.704 422.373 353.932 424.298 351.287 423.373C347.165 422.008 342.764 420.412 338.758 418.998C338.462 419.007 338.168 419.01 337.882 419.004C335.708 418.917 332.833 420.078 329.869 421.165C329.191 421.416 328.509 421.668 327.837 421.903C322.735 423.695 320.267 418.923 318.967 416.362C318.942 416.316 318.915 416.27 318.889 416.224C318.569 415.607 318.148 415.151 317.648 414.616C316.412 413.301 314.927 411.682 313.213 406.176C312.094 405.345 310.996 404.465 309.928 403.534C298.461 393.548 289.518 380.731 280.978 367.597C280.819 367.497 280.656 367.394 280.488 367.289C277.258 365.264 273.318 362.846 272.146 359.694C270.71 355.728 269.951 352.533 269.48 349.929C265.902 344.523 261.888 339.031 257.997 334.327C257.625 335.266 257.229 336.079 256.718 336.72C254.269 339.904 249.474 341.404 245.838 342.632C245.258 342.821 244.705 343.006 244.199 343.188C242.36 345.487 240.587 347.821 238.787 350.221C238.386 350.042 237.972 349.851 237.549 349.655C232.303 347.187 229.942 349.235 226.305 352.445C224.715 353.848 222.849 355.499 220.403 357.103C218.82 358.142 216.723 357.205 215.01 356.443C214.506 356.22 214.039 356.008 213.625 355.868C212.207 355.389 212.515 356.969 212.884 358.834C213.362 361.253 213.945 364.153 210.952 363.69C201.409 362.223 202.654 367.833 203.634 372.039C203.92 373.274 204.178 374.392 204.13 375.183C203.984 377.737 200.826 378.155 197.723 377.63C195.273 377.204 194.204 380.772 194.111 384.179C194.072 385.469 193.204 386.285 192.142 387.279C191.052 388.298 189.798 389.467 189.17 391.454C187.474 396.574 186.618 399.102 185.806 401.238C185.586 401.837 185.38 402.387 185.184 402.944C184.586 404.685 183.535 406.634 182.502 408.582C181.326 410.857 179.984 413.313 179.43 415.442C174.891 417.955 170.261 420.169 165.588 422.45C163.072 423.719 158.319 422 151.822 417.908C145.563 413.58 137.817 407.55 131.076 400.073C123.901 393.01 118.295 384.937 114.345 378.418C110.65 371.665 109.268 366.747 110.761 364.239C113.56 359.409 116.288 354.667 119.364 350.07C123.105 344.476 127.125 339.316 131.94 334.911C135.34 331.801 138.859 328.926 142.525 326.195C142.902 325.913 143.286 325.633 143.668 325.353C144.891 320.912 146.204 316.71 147.72 314.281C148.946 312.298 151.046 312.201 152.846 312.116C154.084 312.059 155.18 312.005 155.754 311.35C156.062 310.999 156.437 310.466 156.888 309.823C158.725 307.202 161.902 302.723 167.156 301.374C169.5 300.764 172.785 300.721 175.906 300.708C180.404 300.659 184.567 300.665 185.263 298.999C186.543 296.023 189.774 294.93 192.751 293.889C195.575 292.907 197.945 292.148 198.021 289.931C198.07 287.317 199.702 287.054 202.082 286.708C203.762 286.447 205.865 286.093 208.041 284.931C210.568 283.576 213.144 283.39 215.205 283.341C218.172 283.226 220.474 283.107 221.38 279.619C222.586 275.604 224.581 272.279 227.59 271.361C228.834 271.02 230.362 269.986 231.877 269.021C233.734 267.825 236.529 266.179 240.031 265.735ZM139.949 93.7086C146.351 89.4243 151.104 87.571 153.678 88.7457C158.739 91.0285 163.762 93.2536 168.688 95.8068C174.632 98.8663 180.174 102.19 185.159 106.408C188.584 109.305 191.882 112.396 195.107 115.655C195.43 115.984 195.751 116.315 196.074 116.648C200.553 117.161 204.923 117.858 207.466 118.919C209.576 119.804 209.981 121.852 210.308 123.586C210.538 124.783 210.744 125.845 211.464 126.294C211.851 126.535 212.427 126.809 213.119 127.139C215.956 128.493 220.732 130.746 222.869 135.57C223.816 137.711 224.365 140.862 224.92 143.887C225.701 148.203 226.437 152.212 228.18 152.531C231.222 153.076 232.897 155.945 234.418 158.496C235.844 160.911 237.106 163.015 239.164 162.476C241.614 161.822 242.147 163.252 242.964 165.378C243.561 166.874 244.294 168.7 245.826 170.341C247.592 172.234 248.308 174.485 248.831 176.331C249.526 178.897 250.289 180.986 253.518 180.399C257.157 179.783 260.266 179.894 261.533 181.687C261.643 181.84 261.767 181.979 261.898 182.111C262.205 181.835 262.557 181.649 262.978 181.589C263.543 181.516 264.574 182.279 265.641 183.006C265.647 183.011 265.655 183.014 265.66 183.019C265.732 183.068 265.802 183.117 265.874 183.166C267.917 180.472 269.94 177.563 271.93 174.544C271.959 174.114 271.993 173.684 272.03 173.259C272.202 171.185 272.42 169.115 271.798 166.946C271.112 164.605 272.214 161.977 273.377 159.168C274.11 157.355 274.892 155.448 275.221 153.511C275.419 152.375 276.855 152.798 278.365 153.204C279.77 153.586 281.221 153.97 281.701 153.131C281.94 152.711 281.963 151.99 281.987 151.218C282.011 150.536 282.022 149.824 282.188 149.246C282.343 148.71 283.587 148.52 285.19 148.253C286.181 148.088 287.309 147.892 288.403 147.578C289.844 145.206 291.324 142.827 292.826 140.485C292.486 139.291 291.867 137.902 290.894 136.286C290.197 135.126 289.293 133.804 288.369 132.454C287.111 130.615 285.809 128.717 284.914 127.07C284.215 125.783 284.145 125.079 284.757 125.314C285.042 125.424 285.469 125.733 285.856 126.011C286.3 126.331 286.694 126.613 286.77 126.523C286.824 126.458 286.631 126.122 286.396 125.713C286.022 125.059 285.54 124.211 285.765 123.954C286.606 122.998 287.867 122.236 289.104 121.485C290.479 120.65 291.818 119.829 292.521 118.774C293.306 117.595 295.703 117.266 298.096 116.927C299.772 116.686 301.457 116.425 302.591 115.894C303.703 115.371 304.031 113.974 304.347 112.615C304.741 110.968 305.109 109.388 306.797 109.477C307.139 109.496 308.411 110.396 310 111.518C311.127 112.314 312.418 113.221 313.653 114.012C314.691 113.007 315.836 111.982 316.97 111.041C316.863 110.856 316.752 110.667 316.64 110.476C316.637 110.472 316.636 110.467 316.634 110.463C314.118 106.122 310.611 100.25 315.085 101.426C316.217 101.731 317.786 102.801 319.2 103.763C320.588 104.708 321.832 105.554 322.356 105.475C322.951 105.384 322.654 104.257 322.325 103.038C321.872 101.318 321.394 99.3665 323.23 99.8117C323.355 99.8418 323.493 99.8768 323.632 99.909C324.95 100.214 326.896 100.67 330.03 102.356C332.971 100.724 335.89 99.3246 339.009 97.8516C344.138 95.4681 349.363 93.3449 354.67 91.1078C357.375 89.9118 362.282 91.5301 368.917 95.3545C375.32 99.4314 383.2 105.019 390.08 112.106C397.383 118.759 403.131 126.536 407.299 132.897C411.21 139.504 412.833 144.467 411.589 147.273C409.835 151.542 407.934 155.944 405.995 160.17C405.973 160.482 405.945 160.791 405.907 161.091C405.698 163.257 406.566 166.315 407.371 169.44C407.557 170.156 407.742 170.878 407.911 171.588C409.341 176.842 404.092 179.321 401.234 180.644C401.183 180.67 401.131 180.696 401.08 180.722C400.396 181.043 399.852 181.485 399.264 181.963C397.863 183.101 395.813 184.795 390.005 186.241C388.994 187.38 387.895 188.53 386.82 189.571C374.942 201.067 360.133 209.662 344.387 217.47C344.245 217.629 344.102 217.793 343.956 217.957C341.105 221.171 337.52 225.13 333.808 226.054C329.196 227.142 325.511 227.586 322.589 227.738C315.988 230.776 309.393 233.798 302.321 237.095C298.733 238.767 295.123 240.461 290.765 242.422C289.656 242.921 288.537 243.409 287.395 243.886C286.142 244.426 284.716 245.026 283.284 245.573C282.541 245.858 281.88 246.097 280.988 246.418C280.044 246.76 279.056 247.093 278.004 247.417C276.951 247.74 275.833 248.054 274.618 248.343C273.348 248.651 271.442 249.059 269.517 249.301C267.804 249.521 265.892 249.665 263.716 249.631C252.373 248.945 249.757 246.652 246.168 245.328C243.186 243.966 240.657 242.608 238.51 241.446C234.022 238.994 230.398 236.892 226.632 234.783C223.989 234.289 221.514 234.096 219.062 233.791C215.751 233.453 212.843 233.135 210.783 232.233C206.038 230.218 202.477 225.403 199.896 221.83C199.49 221.258 199.107 220.715 198.744 220.221C195.741 218.762 192.681 217.291 189.682 215.865C189.75 215.42 189.825 214.961 189.905 214.492C190.882 208.613 188.223 206.627 183.95 203.373C182.118 201.977 179.979 200.339 177.75 198.067C176.321 196.609 176.813 194.334 177.216 192.479C177.334 191.934 177.443 191.423 177.496 190.981C177.674 189.466 176.132 190.013 174.308 190.658C171.942 191.495 169.096 192.496 168.946 189.382C168.487 179.47 163.076 181.505 158.961 183.034C157.75 183.479 156.654 183.88 155.833 183.926C153.166 184.071 152.198 180.939 152.152 177.698C152.106 175.12 148.337 174.499 144.827 174.773C143.49 174.869 142.479 174.051 141.306 173.096C140.09 172.105 138.716 170.978 136.526 170.498C131.08 169.36 128.237 168.626 125.982 168.055C125.34 167.892 124.749 167.738 124.154 167.596C122.271 167.145 120.056 166.209 117.947 165.366C115.405 164.341 112.689 163.178 110.453 162.815C107.161 158.338 104.203 153.738 101.216 149.095C99.6233 146.648 100.735 141.626 104.084 134.668C107.699 127.936 112.977 119.645 119.86 112.297C126.295 104.555 133.797 98.2211 139.949 93.7086ZM267.14 186.571C267.381 187.759 267.156 189.527 266.917 191.088C266.832 191.651 266.751 192.186 266.691 192.662C267.304 192.943 267.831 193.145 268.11 193.199C268.275 192.927 268.44 192.617 268.606 192.297C269.02 191.492 269.367 190.541 269.404 189.59C269.399 188.64 269.327 187.691 267.718 186.838C267.54 186.744 267.347 186.657 267.14 186.571ZM259.894 185.918C255.853 186.329 256.173 187.701 256.197 188.318C256.499 189.178 257.709 189.634 258.508 188.754C259.089 188.156 259.438 187.1 259.894 185.918Z" fill="#F471B4"/>
</svg>
